<svg xmlns="http://www.w3.org/2000/svg" width="600" height="137" viewBox="0 0 600 137">
  <g fill="none">
    <polygon fill="#0096FF" points="147.424 .319 0 85.433 0 119.48 29.484 136.503 176.908 51.388 176.908 17.341"/>
    <polygon fill="#40CF4A" points="29.485 .319 0 17.341 0 51.388 25.799 66.282 84.769 32.237"/>
    <polygon fill="#40CF4A" points="92.14 104.585 147.424 136.503 176.908 119.479 176.908 85.434 151.109 70.539"/>
    <g fill="#FFF" transform="translate(219 7)">
      <path d="M26.929711,37.2463837 C21.399321,37.1302547 18.517487,35.4025806 18.517487,32.2925637 C18.517487,29.5268591 21.283192,27.569983 26.697453,27.569983 C31.883531,27.569983 35.913413,28.7200679 40.17657,31.7159932 L48.356537,21.346893 C42.366723,16.1628523 35.339898,13.9737182 26.583362,13.9737182 C14.256367,13.9737182 2.043463,19.390017 2.043463,32.2925637 C2.043463,45.6565705 15.293379,50.03382 25.890662,50.4962988 C33.610187,50.7265195 35.570119,52.9136163 35.570119,55.5631919 C35.684211,58.5591171 31.883531,60.5170119 27.043803,60.4029202 C21.052971,60.2867912 14.256367,59.0195586 7.227504,53.259966 L0.08455,65.0103905 C9.762988,73.0762649 18.403396,74.6888285 26.813582,74.6888285 C44.90017,74.6888285 51.812903,64.7801698 51.696774,55.5631919 C51.583701,39.8959593 38.103565,37.5927334 26.929711,37.2463837 L26.929711,37.2463837 Z M125.436978,14.2037351 C117.026791,14.2037351 111.613548,17.1996604 106.543599,24.9191851 C102.857012,16.62309 96.17348,14.3198642 89.953447,14.3198642 C85.492666,14.3198642 79.594533,15.6410866 75.897759,20.713073 L75.897759,15.5870968 L73.823735,15.5870968 L59.307606,15.5870968 L59.307606,55.660781 L59.307606,72.4994907 L75.897759,72.4994907 L75.897759,55.660781 L75.897759,42.083871 C75.897759,35.6336163 79.584346,29.5266553 86.15073,29.5266553 C92.95039,29.5266553 95.944278,34.4804754 95.944278,41.9697793 L95.944278,72.4994907 L112.303192,72.4994907 L112.303192,41.9697793 C112.303192,35.5164686 116.22,29.8730051 122.787402,29.8730051 C129.469915,29.8730051 131.426791,34.5966044 131.426791,41.7395586 L131.426791,72.4994907 L148.133073,72.4994907 L148.133073,41.3932088 C148.133073,20.1966044 137.303531,14.2037351 125.436978,14.2037351 L125.436978,14.2037351 Z M242.391545,21.8549066 L242.391545,15.7031239 L241.24146,15.7031239 L225.801392,15.7031239 L225.801392,72.4993888 L242.391545,72.4993888 L242.391545,42.8905603 C242.391545,34.3662818 248.497487,29.7567742 255.64146,29.7567742 C259.097827,29.7567742 261.977623,30.6796944 264.74129,32.6365705 L271.655042,19.5038031 C267.624143,15.9333447 263.130764,14.3197623 257.714465,14.3197623 C251.378302,14.3197623 246.192224,16.5547368 242.391545,21.8549066 L242.391545,21.8549066 Z M307.028761,58.7897453 C303.918744,58.7897453 300.578506,57.176163 300.578506,51.1863497 L300.578506,29.7564686 L315.094635,29.7564686 L315.094635,15.933039 L300.694635,15.933039 L300.694635,0.03354839 L284.104482,9.6050255 L284.104482,15.933039 L273.965603,15.933039 L273.965603,29.7564686 L284.104482,29.7564686 L284.104482,51.1863497 C284.104482,68.9296435 293.435552,74.3428862 305.761528,73.7663158 C310.254907,73.5360951 313.5982,72.8464516 317.744211,71.2328693 L313.941494,57.4063837 C312.09871,58.3293039 308.988693,58.7897453 307.028761,58.7897453 L307.028761,58.7897453 Z M185.127708,59.0198642 C176.831613,59.0198642 170.151138,53.4894737 170.151138,44.0432937 C170.151138,34.5960951 176.831613,28.9505942 185.127708,28.9505942 C195.034329,28.9505942 200.21837,36.4398981 200.21837,44.6198642 C200.21837,51.7628183 194.457759,59.0198642 185.127708,59.0198642 Z M200.21837,15.5865874 L200.21837,22.1539898 C197.224482,17.0840407 190.540951,14.3203735 183.397997,14.3203735 C166.578642,14.0901528 153.560985,25.1499151 153.560985,44.0432937 C153.560985,62.8225806 165.88798,73.882343 182.937555,73.7662139 C188.369134,73.6541596 196.33416,71.406961 200.21837,65.6524618 L200.21837,72.5 L201.371511,72.5 L216.348081,72.5 L216.348081,15.5865874 L200.794941,15.5865874 L200.21837,15.5865874 Z"/>
      <polygon points="380.882 72.5 360.519 43.401 379.845 15.703 360.032 15.703 350.584 29.204 341.136 15.703 321.323 15.703 340.677 43.36 320.286 72.5 340.216 72.5 350.627 57.579 361.068 72.5"/>
      <polygon points="24.491 91.963 18.644 99.324 17.886 99.324 12.231 91.91 12.231 105.142 8.008 105.142 8.008 86.199 12.852 86.199 18.374 93.479 23.922 86.199 28.712 86.199 28.712 105.142 24.491 105.142"/>
      <path d="M52.903294,90.4482513 L49.630289,98.132122 L56.151851,98.132122 L52.903294,90.4482513 Z M57.748115,101.867606 L48.031986,101.867606 L46.651681,105.116163 L42.10635,105.116163 L50.604143,86.1708319 L55.204482,86.1708319 L63.702275,105.116163 L59.128421,105.116163 L57.748115,101.867606 Z"/>
      <polygon points="92.737 86.278 85.05 95.374 93.414 104.872 93.414 105.116 88.325 105.116 81.315 97.025 81.315 105.116 77.093 105.116 77.093 86.17 81.315 86.17 81.315 93.994 87.622 86.17 92.737 86.17"/>
      <polygon points="121.12 105.116 106.694 105.116 106.694 86.171 120.742 86.171 120.742 90.042 110.835 90.042 110.835 93.695 120.173 93.695 120.173 97.403 110.835 97.403 110.835 101.219 121.12 101.219"/>
      <polygon points="153.628 86.171 157.823 86.171 157.823 105.116 153.628 105.116"/>
      <polygon points="177.54 89.934 171.774 89.934 171.774 86.171 187.499 86.171 187.499 89.934 181.734 89.934 181.734 105.116 177.54 105.116"/>
      <path d="M229.722784,90.7448896 C228.667436,89.6345331 226.825671,89.1496435 225.337385,89.1496435 C223.471171,89.1496435 221.954363,89.9340238 221.954363,91.2328353 C221.954363,92.964584 223.605637,93.287504 226.04129,93.505501 C229.775756,93.831477 233.320747,95.263735 233.320747,99.649134 C233.320747,103.871545 229.423294,105.711273 225.337385,105.737759 C222.062343,105.766282 218.652835,104.493956 217.055552,101.841324 L219.574737,99.216197 C221.03348,101.082411 223.442649,101.896333 225.363871,101.896333 C227.610051,101.896333 229.153345,101.000917 229.153345,99.649134 C229.17983,98.050832 227.909542,97.32146 225.337385,97.10652 C221.332971,96.725535 217.760475,95.726214 217.813447,91.2593209 C217.841969,87.4983701 221.414465,85.4936163 225.3109,85.4936163 C228.234499,85.4936163 230.425671,86.1445501 232.373379,88.4172156 L229.722784,90.7448896 Z"/>
      <polygon points="247.601 86.171 251.797 86.171 251.797 105.116 247.601 105.116"/>
      <polygon points="283.882 91.963 278.035 99.324 277.277 99.324 271.621 91.91 271.621 105.142 267.399 105.142 267.399 86.199 272.242 86.199 277.765 93.479 283.312 86.199 288.102 86.199 288.102 105.142 283.882 105.142"/>
      <path d="M307.937317,95.886146 L312.645637,95.886146 C314.676876,95.886146 315.679253,94.560849 315.679253,93.046078 C315.679253,91.5292699 314.65039,90.1774873 312.645637,90.1774873 L307.937317,90.1774873 L307.937317,95.886146 Z M307.937317,99.757114 L307.937317,105.116367 L303.714907,105.116367 L303.714907,86.1710357 L312.645637,86.1710357 C317.490458,86.1710357 319.899626,89.3116129 319.899626,92.964584 C319.899626,96.75202 317.463973,99.704143 312.645637,99.757114 L307.937317,99.757114 Z"/>
      <polygon points="338.242 86.171 338.242 101.245 347.713 101.245 347.713 105.116 334.019 105.116 334.019 86.171"/>
      <polygon points="376.07 105.116 361.644 105.116 361.644 86.171 375.692 86.171 375.692 90.042 365.786 90.042 365.786 93.695 375.123 93.695 375.123 97.403 365.786 97.403 365.786 101.219 376.07 101.219"/>
    </g>
  </g>
</svg>
