<svg width="88" height="48" viewBox="0 0 88 48" fill="none" xmlns="http://www.w3.org/2000/svg">
<path fill-rule="evenodd" clip-rule="evenodd" d="M17.9075 32.3269C17.5702 31.7738 17.1758 31.2613 16.7329 30.7976L16.6971 30.7604C15.0909 29.098 12.8579 28.0729 10.4062 28.0729C7.25643 28.0729 4.4674 29.765 2.90505 32.3268C2.80758 32.4867 2.63589 32.5881 2.44869 32.5881H0.259935C0.0750975 32.5881 -0.0505008 32.4004 0.0197919 32.2295C2.60476 25.9429 4.92257 19.5253 7.23875 13.1122C7.69286 11.8549 8.14691 10.5977 8.60289 9.34173C8.67738 9.13656 8.87234 9 9.09061 9H11.7231C11.9414 9 12.1364 9.13656 12.2108 9.34173C12.6707 10.6085 13.1286 11.8764 13.5866 13.1446C15.8985 19.5468 18.2121 25.9535 20.7927 32.2295C20.863 32.4004 20.7374 32.5881 20.5526 32.5881H18.3638C18.1766 32.5881 18.0049 32.4867 17.9075 32.3269ZM10.4062 25.478C8.399 25.478 6.74297 26.136 5.26208 26.8484L10.147 13.4092C10.2299 13.1813 10.5524 13.1815 10.6349 13.4096L15.4865 26.8179C14.022 26.1246 12.3884 25.478 10.4062 25.478Z" fill="#0C2849" style="fill:#0C2849;fill:color(display-p3 0.0482 0.1574 0.2862);fill-opacity:1;"/>
<path d="M52.2705 19.1637V32.6139H55.4882V19.1637H59.2208V16.6538H55.4882V14.6267C55.4882 13.8544 55.6491 13.3074 55.9709 12.9856C56.3141 12.6638 56.8718 12.503 57.6441 12.503H58.8025V9.89658H57.1293C56.0996 9.89658 55.2201 10.0575 54.4907 10.3792C53.7613 10.701 53.2036 11.2159 52.8175 11.9238C52.4528 12.6102 52.2705 13.5219 52.2705 14.6588V16.6538H49.9215V19.1637H52.2705Z" fill="#0C2849" style="fill:#0C2849;fill:color(display-p3 0.0482 0.1574 0.2862);fill-opacity:1;"/>
<path d="M23.5053 32.6139V16.6538H26.3048L26.5944 20.0003H26.6909C27.1628 18.9921 27.6669 18.2198 28.2032 17.6835C28.7395 17.1472 29.3616 16.7826 30.0695 16.5895C30.7989 16.375 31.6462 16.2677 32.6115 16.2677V19.6463H31.7427C30.9705 19.6463 30.2626 19.7429 29.619 19.9359C28.9969 20.129 28.4714 20.4293 28.0423 20.8369C27.6133 21.2445 27.2808 21.7701 27.0448 22.4136C26.8303 23.0572 26.7231 23.8294 26.7231 24.7304V32.6139H23.5053Z" fill="#0C2849" style="fill:#0C2849;fill:color(display-p3 0.0482 0.1574 0.2862);fill-opacity:1;"/>
<path d="M41.3356 33C39.6839 33 38.2466 32.646 37.0239 31.9381C35.8226 31.2302 34.8787 30.2542 34.1923 29.01C33.5273 27.7443 33.1948 26.2856 33.1948 24.6339C33.1948 22.9821 33.5487 21.5341 34.2566 20.2899C34.9645 19.0243 35.9298 18.0375 37.1526 17.3296C38.3753 16.6217 39.7697 16.2677 41.3356 16.2677C43.2877 16.2677 44.9288 16.7826 46.2588 17.8122C47.5888 18.8205 48.4254 20.1826 48.7686 21.8988H45.4544C45.2398 20.9334 44.7465 20.1934 43.9742 19.6785C43.2234 19.1637 42.3332 18.9063 41.3035 18.9063C40.4454 18.9063 39.6517 19.1208 38.9223 19.5498C38.193 19.9789 37.6031 20.6224 37.1526 21.4805C36.7021 22.3171 36.4769 23.3682 36.4769 24.6339C36.4769 25.5563 36.6056 26.3714 36.863 27.0793C37.1204 27.7658 37.4636 28.3557 37.8927 28.8491C38.3431 29.321 38.858 29.6857 39.4372 29.9431C40.0164 30.1791 40.6385 30.2971 41.3035 30.2971C41.9899 30.2971 42.612 30.1791 43.1698 29.9431C43.749 29.7072 44.2316 29.3747 44.6178 28.9456C45.0253 28.4952 45.3042 27.9696 45.4544 27.3689H48.7686C48.4254 29.0636 47.5888 30.4258 46.2588 31.4555C44.9288 32.4852 43.2877 33 41.3356 33Z" fill="#0C2849" style="fill:#0C2849;fill:color(display-p3 0.0482 0.1574 0.2862);fill-opacity:1;"/>
<path d="M61.065 16.6538H63.8644L64.154 20.0003H64.2505C64.7225 18.9921 65.2266 18.2198 65.7629 17.6835C66.2992 17.1472 66.9213 16.7826 67.6292 16.5895C68.3585 16.375 69.2058 16.2677 70.1712 16.2677V19.6463H69.3024C68.5301 19.6463 67.8222 19.7429 67.1787 19.9359C66.5566 20.129 66.031 20.4293 65.602 20.8369C65.1729 21.2445 64.8404 21.7701 64.6045 22.4136C64.39 23.0572 64.2827 23.8294 64.2827 24.7304V32.6139H61.065V16.6538Z" fill="#0C2849" style="fill:#0C2849;fill:color(display-p3 0.0482 0.1574 0.2862);fill-opacity:1;"/>
<path fill-rule="evenodd" clip-rule="evenodd" d="M74.3583 31.906C75.5167 32.6353 76.8574 33 78.3804 33C79.7319 33 80.9117 32.7104 81.92 32.1312C82.9497 31.552 83.7755 30.769 84.3976 29.7823H84.4942L84.7194 32.6139H87.5188V16.6538H84.4942L84.3011 19.1315C83.7648 18.3378 83.014 17.6621 82.0487 17.1043C81.1048 16.5466 79.9571 16.2677 78.6057 16.2677C76.9968 16.2677 75.6025 16.6324 74.4226 17.3617C73.2428 18.0911 72.3311 19.0886 71.6875 20.3543C71.0654 21.6199 70.7544 23.0464 70.7544 24.6339C70.7544 26.2213 71.0654 27.6478 71.6875 28.9135C72.3311 30.1791 73.2213 31.1766 74.3583 31.906ZM81.8234 29.5248C81.0512 29.9968 80.1502 30.2327 79.1205 30.2327C78.1123 30.2327 77.2221 29.9968 76.4498 29.5248C75.6775 29.0529 75.0769 28.3986 74.6479 27.562C74.2403 26.7254 74.0365 25.7493 74.0365 24.6339C74.0365 23.5184 74.2403 22.5423 74.6479 21.7057C75.0769 20.8476 75.6775 20.1826 76.4498 19.7107C77.2221 19.2388 78.1123 19.0028 79.1205 19.0028C80.1502 19.0028 81.0512 19.2388 81.8234 19.7107C82.5957 20.1826 83.1963 20.8476 83.6254 21.7057C84.0544 22.5423 84.2689 23.5184 84.2689 24.6339C84.2689 25.7493 84.0544 26.7254 83.6254 27.562C83.1963 28.3986 82.5957 29.0529 81.8234 29.5248Z" fill="#0C2849" style="fill:#0C2849;fill:color(display-p3 0.0482 0.1574 0.2862);fill-opacity:1;"/>
</svg>
