<svg width="115" height="26" viewBox="0 0 115 26" fill="none" xmlns="http://www.w3.org/2000/svg">
<path fill-rule="evenodd" clip-rule="evenodd" d="M28.1461 0L0 16.2499V22.7501L5.62905 26L33.7751 9.75006V3.24982L28.1461 0Z" fill="#0096FF"/>
<path fill-rule="evenodd" clip-rule="evenodd" d="M5.62924 0L0 3.24982V9.75006L4.92552 12.5935L16.1839 6.09374L5.62924 0Z" fill="#25C764"/>
<path fill-rule="evenodd" clip-rule="evenodd" d="M17.5914 19.9063L28.1461 26L33.775 22.7498V16.2502L28.8496 13.4062L17.5914 19.9063Z" fill="#25C764"/>
<path fill-rule="evenodd" clip-rule="evenodd" d="M45.3356 7.44076C45.3356 8.03453 45.8858 8.36438 46.9417 8.38655C49.0751 8.45266 51.6486 8.89228 51.6703 11.8837C51.6924 13.6433 50.3727 15.535 46.9195 15.535C45.3139 15.535 43.6642 15.2272 41.8164 13.6871L43.1803 11.4438C44.5222 12.5436 45.8198 12.7853 46.9634 12.8075C47.8874 12.8294 48.6131 12.4556 48.5914 11.8837C48.5914 11.3778 48.2171 10.9601 46.7433 10.9163C44.7201 10.8278 42.1905 9.99224 42.1905 7.44076C42.1905 4.97742 44.5222 3.94334 46.8757 3.94334C48.5473 3.94334 49.889 4.3613 51.0326 5.35102L49.4708 7.33069C48.6569 6.75871 47.8874 6.53912 46.8973 6.53912C45.8637 6.53912 45.3356 6.91273 45.3356 7.44076ZM62.1416 6.03305C63.1095 4.55924 64.1429 3.98725 65.7485 3.98725C68.0143 3.98725 70.0816 5.13142 70.0816 9.17836V15.117H66.8921V9.24439C66.8921 7.88065 66.5186 6.97882 65.2427 6.97882C63.9889 6.97882 63.2411 8.05627 63.2411 9.28826V15.117H60.1179V9.28826C60.1179 7.85847 59.5462 6.91271 58.2481 6.91271C56.9944 6.91271 56.2907 8.07864 56.2907 9.31019V11.9022V15.117H53.1233V11.9022V4.25138H55.8947H56.2907V5.23001C56.9964 4.26168 58.1224 4.00943 58.974 4.00943C60.1617 4.00943 61.4376 4.44917 62.1416 6.03305ZM88.0775 4.27353V5.44801C88.803 4.43611 89.7933 4.0094 91.0029 4.0094C92.0371 4.0094 92.8948 4.31749 93.6643 4.99915L92.3443 7.50643C91.8168 7.13282 91.267 6.95662 90.6072 6.95662C89.2433 6.95662 88.0775 7.83666 88.0775 9.46419V15.117H84.9102V4.27353H87.858H88.0775ZM99.1863 11.0479C99.1863 12.1914 99.824 12.4997 100.418 12.4997C100.792 12.4997 101.386 12.4117 101.738 12.2355L102.464 14.8753C101.672 15.1833 101.034 15.3149 100.176 15.3588C97.8227 15.4689 96.0412 14.4355 96.0412 11.0479V6.95657H94.1056V4.31741H96.0412V3.10928L99.2085 1.28191V4.31741H101.958V6.95657H99.1863V11.0479ZM74.2853 9.68423C74.2853 11.4877 75.5607 12.5436 77.1447 12.5436C78.9259 12.5436 80.0259 11.158 80.0259 9.79438C80.0259 8.23257 79.0361 6.80271 77.1447 6.80271C75.5607 6.80271 74.2853 7.88055 74.2853 9.68423ZM80.0259 5.50513V4.25128H80.1358H83.1053V15.117H80.2459H80.0259V13.8097C79.2841 14.9085 77.7636 15.3376 76.7265 15.3588C73.4714 15.3809 71.118 13.2695 71.118 9.68423C71.118 6.07709 73.6033 3.96557 76.8145 4.00953C78.1781 4.00953 79.4542 4.53716 80.0259 5.50513ZM110.63 9.56166L114.518 15.117H110.735L108.742 12.2684L106.754 15.117H102.949L106.842 9.55362L103.147 4.2735H106.93L108.733 6.85108L110.537 4.2735H114.32L110.63 9.56166ZM46.476 18.8329L45.3597 20.2384H45.215L44.1355 18.8229V21.3491H43.3292V17.7324H44.2539L45.3083 19.1224L46.3676 17.7324H47.2819V21.3491H46.476V18.8329ZM51.2758 20.0108L51.9006 18.5439L52.5207 20.0108H51.2758ZM50.9704 20.7238H52.8256L53.089 21.3442H53.9623L52.3399 17.7271H51.4617L49.8393 21.3442H50.707L50.9704 20.7238ZM59.5055 17.7476L58.0381 19.4842L59.6349 21.2975V21.3442H58.6631L57.3248 19.7993V21.3442H56.5187V17.7271H57.3248V19.2208L58.5291 17.7271H59.5055V17.7476ZM62.1701 21.3442H64.9244V20.6H62.9609V19.8717H64.7436V19.1636H62.9609V18.4662H64.8523V17.7271H62.1701V21.3442ZM71.1309 17.7271H71.9316V21.3442H71.1309V17.7271ZM74.5953 18.4457H75.696V21.3442H76.4967V18.4457H77.5974V17.7271H74.5953V18.4457ZM85.6588 18.6004C85.4572 18.3884 85.1056 18.2958 84.8215 18.2958C84.4652 18.2958 84.1755 18.4457 84.1755 18.6935C84.1755 19.0242 84.4908 19.0858 84.9558 19.1275C85.6688 19.1896 86.3457 19.463 86.3457 20.3003C86.3457 21.1067 85.6015 21.4578 84.8215 21.4629C84.1962 21.4683 83.5454 21.2253 83.2403 20.719L83.7213 20.2177C83.9998 20.574 84.4596 20.7294 84.8266 20.7294C85.2555 20.7294 85.5501 20.5584 85.5501 20.3003C85.555 19.9952 85.3125 19.8561 84.8215 19.8149C84.0571 19.7423 83.375 19.5515 83.385 18.6986C83.3904 17.9805 84.0724 17.5979 84.8164 17.5979C85.3746 17.5979 85.793 17.7222 86.1649 18.156L85.6588 18.6004ZM89.8732 17.7271H89.072V21.3442H89.8732V17.7271ZM95.9988 18.8329L94.8825 20.2384H94.7377L93.658 18.8229V21.3491H92.8519V17.7324H93.7764L94.8308 19.1224L95.8899 17.7324H96.8044V21.3491H95.9988V18.8329ZM101.49 19.582H100.591V18.492H101.49C101.873 18.492 102.07 18.7503 102.07 19.0398C102.07 19.329 101.878 19.582 101.49 19.582ZM100.591 21.3442V20.321H101.49C102.41 20.3108 102.875 19.7472 102.875 19.0242C102.875 18.3268 102.415 17.7271 101.49 17.7271H99.7853V21.3442H100.591ZM106.377 17.7271V20.6052H108.185V21.3442H105.571V17.7271H106.377ZM110.845 21.3442H113.599V20.6H111.636V19.8717H113.418V19.1636H111.636V18.4662H113.527V17.7271H110.845V21.3442Z" fill="#212934"/>
</svg>
