<svg width="12" height="8" viewBox="0 0 12 8" fill="none" xmlns="http://www.w3.org/2000/svg">
<path d="M6.00342 7.34277C6.09001 7.34277 6.17204 7.32682 6.24951 7.29492C6.33154 7.25846 6.40218 7.20833 6.46143 7.14453L11.7524 1.72363C11.8755 1.60059 11.937 1.45475 11.937 1.28613C11.937 1.16764 11.9097 1.06055 11.855 0.964844C11.8003 0.869141 11.7251 0.793945 11.6294 0.739258C11.5382 0.68457 11.4334 0.657227 11.3149 0.657227C11.1463 0.657227 10.9982 0.716471 10.8706 0.834961L5.63428 6.1875H6.36572L1.12939 0.834961C1.00635 0.716471 0.858236 0.657227 0.685059 0.657227C0.566569 0.657227 0.459473 0.68457 0.36377 0.739258C0.272624 0.793945 0.199707 0.869141 0.14502 0.964844C0.090332 1.06055 0.0629883 1.16764 0.0629883 1.28613C0.0629883 1.37272 0.0789388 1.45475 0.11084 1.53223C0.142741 1.60514 0.188314 1.67122 0.247559 1.73047L5.53857 7.14453C5.67529 7.27669 5.83024 7.34277 6.00342 7.34277Z" fill="#001540" fill-opacity="0.3"/>
</svg>
